<svg width="881" height="318" viewBox="0 0 881 318" fill="none" xmlns="http://www.w3.org/2000/svg">
<path d="M880.24 171.997C880.24 175.513 877.13 182.409 870.91 192.685C864.42 203.773 859.011 209.452 854.684 209.722C849.546 210.263 839 207.288 823.044 200.798C805.196 193.496 790.323 185.383 778.424 176.459C758.953 218.917 733.938 240.146 703.38 240.146C699.594 240.146 697.701 236.36 697.701 228.788C697.701 209.317 702.839 199.581 713.116 199.581C727.719 199.581 740.294 194.578 750.84 184.572C758.953 177 768.553 163.478 779.641 144.007C782.345 139.14 785.59 134.272 789.376 129.404C790.187 129.404 791.675 130.215 793.838 131.838C805.196 111.285 818.177 100.333 832.78 98.9804C844.138 97.8987 854.144 103.578 862.797 116.018C874.426 132.514 880.24 151.174 880.24 171.997ZM849.005 162.667C847.924 155.636 843.462 149.822 835.619 145.224C829.129 141.438 823.585 139.816 818.988 140.356C812.227 140.897 808.441 142.79 807.63 146.036C807.36 147.658 812.498 150.903 823.044 155.771C833.861 160.639 842.515 162.938 849.005 162.667Z" fill="url(#paint0_linear_174_4485)"/>
<path d="M712.714 199.579C716.5 199.579 718.393 203.365 718.393 210.937C718.393 230.408 713.255 240.144 702.979 240.144C679.993 239.873 666.877 228.109 663.632 204.852C663.091 199.984 661.739 194.711 659.575 189.032C659.035 188.491 654.572 190.79 646.189 195.928C634.831 202.959 626.718 207.692 621.851 210.126C570.47 235.546 504.485 248.392 423.898 248.662C420.112 248.933 418.219 245.282 418.219 237.71C418.219 217.968 423.357 208.097 433.633 208.097C532.069 208.097 608.735 190.114 663.632 154.146C670.393 149.819 674.719 148.332 676.612 149.684C677.694 150.225 677.694 151.848 676.612 154.552C674.99 158.067 674.178 160.907 674.178 163.07C674.178 173.888 678.1 182.677 685.942 189.438C693.784 196.198 702.709 199.579 712.714 199.579ZM671.745 24.7445L651.463 61.2528L609.276 36.5083L629.558 0L671.745 24.7445Z" fill="white"/>
<path d="M582.501 145.695C582.501 161.38 575.605 178.553 561.813 197.212C550.185 213.168 528.55 226.284 496.91 236.56C470.138 245.214 445.664 249.541 423.489 249.541C398.34 249.541 377.922 244.538 362.237 234.532C355.747 249.676 351.015 256.843 348.04 256.031C343.172 254.679 344.389 245.079 351.691 227.23C336.547 215.061 327.082 200.593 323.296 183.826C306.8 219.793 282.867 237.777 251.497 237.777C247.711 237.777 245.818 233.991 245.818 226.419C245.818 206.948 250.956 197.212 261.233 197.212C280.433 197.212 296.388 188.559 309.098 171.251C313.425 164.49 317.752 157.729 322.079 150.968C328.028 141.774 332.49 137.176 335.465 137.176C337.358 137.176 338.575 139.746 339.116 144.884C339.657 152.185 340.198 156.783 340.738 158.676C345.336 171.927 355.342 182.744 370.756 191.128C413.754 113.784 456.482 75.1123 498.939 75.1123C519.221 75.1123 538.556 83.7661 556.945 101.074C573.982 117.3 582.501 132.173 582.501 145.695ZM561.813 168.817C561.813 162.867 554.647 153.267 540.314 140.016C523.007 124.06 505.294 116.083 487.175 116.083C453.101 116.083 418.081 143.261 382.114 197.618C396.717 204.379 413.889 207.759 433.63 207.759C466.352 207.759 497.181 201.945 526.117 190.316C549.914 180.851 561.813 173.685 561.813 168.817Z" fill="url(#paint1_linear_174_4485)"/>
<path d="M261.233 197.202C265.019 197.202 266.912 200.988 266.912 208.56C266.912 228.031 261.774 237.767 251.498 237.767C230.675 237.767 213.097 228.167 198.764 208.966C184.432 189.495 173.75 179.759 166.719 179.759C148.059 179.759 130.752 197.337 114.797 232.494C106.684 251.694 98.5709 270.76 90.458 289.69C80.7227 308.35 69.2295 317.68 55.9785 317.68C41.6459 317.68 28.6653 308.215 17.0369 289.284C5.67898 271.165 0 251.694 0 230.871C0 214.645 1.75778 198.825 5.27334 183.41C8.51847 169.077 11.4932 162.046 14.1975 162.316C16.0904 162.587 16.2257 166.914 14.6031 175.297C12.4397 189.089 11.358 201.259 11.358 211.806C11.358 233.44 15.82 251.289 24.7441 265.351C33.6682 279.414 43.9445 286.445 55.5729 286.445C69.0943 286.445 85.4551 263.458 104.656 217.485C115.743 191.253 128.453 170.7 142.786 155.826C154.955 143.386 165.907 137.166 175.643 137.166C181.322 137.166 186.73 140.952 191.868 148.524C197.007 155.826 202.145 163.398 207.283 171.241C221.075 189.63 239.058 198.284 261.233 197.202ZM219.858 46.3012L199.576 82.8095L158.2 58.4706L141.163 88.8942L98.9765 64.1497L119.259 27.6414L160.634 51.9802L177.671 21.5566L219.858 46.3012Z" fill="white"/>
<defs>
<linearGradient id="paint0_linear_174_4485" x1="28.5944" y1="217.49" x2="834.427" y2="40.6606" gradientUnits="userSpaceOnUse">
<stop offset="0.0576923" stop-color="white"/>
<stop offset="0.240385" stop-color="white"/>
<stop offset="0.399038" stop-color="#60A5FA"/>
<stop offset="0.677885" stop-color="#60A5FA"/>
<stop offset="0.745192" stop-color="#F0F7FF"/>
<stop offset="1" stop-color="white"/>
</linearGradient>
<linearGradient id="paint1_linear_174_4485" x1="422.055" y1="217.843" x2="267.755" y2="213.305" gradientUnits="userSpaceOnUse">
<stop stop-color="#34D399"/>
<stop offset="0.658654" stop-color="#47D7A2"/>
<stop offset="1" stop-color="white"/>
</linearGradient>
</defs>
</svg>
