<svg width="1080" height="1080" viewBox="0 0 1080 1080" fill="none" xmlns="http://www.w3.org/2000/svg">
<path d="M980.24 552.997C980.24 556.513 977.13 563.409 970.91 573.685C964.42 584.773 959.011 590.452 954.684 590.722C949.546 591.263 939 588.288 923.044 581.798C905.196 574.496 890.323 566.383 878.424 557.459C858.953 599.917 833.938 621.146 803.38 621.146C799.594 621.146 797.701 617.36 797.701 609.788C797.701 590.317 802.839 580.581 813.116 580.581C827.719 580.581 840.294 575.578 850.84 565.572C858.953 558 868.553 544.478 879.641 525.007C882.345 520.14 885.59 515.272 889.376 510.404C890.187 510.404 891.675 511.215 893.838 512.838C905.196 492.285 918.177 481.333 932.78 479.98C944.138 478.899 954.144 484.578 962.797 497.018C974.426 513.514 980.24 532.174 980.24 552.997ZM949.005 543.667C947.924 536.636 943.462 530.822 935.619 526.224C929.129 522.438 923.585 520.816 918.988 521.356C912.227 521.897 908.441 523.79 907.63 527.036C907.36 528.658 912.498 531.903 923.044 536.771C933.861 541.639 942.515 543.938 949.005 543.667Z" fill="url(#paint0_linear_174_4482)"/>
<path d="M812.714 580.579C816.5 580.579 818.393 584.365 818.393 591.937C818.393 611.408 813.255 621.144 802.979 621.144C779.992 620.873 766.876 609.109 763.631 585.852C763.09 580.984 761.738 575.711 759.575 570.032C759.034 569.491 754.572 571.79 746.189 576.928C734.831 583.959 726.718 588.692 721.85 591.126C670.469 616.546 604.485 629.392 523.897 629.662C520.111 629.933 518.218 626.282 518.218 618.71C518.218 598.968 523.356 589.097 533.633 589.097C632.068 589.097 708.735 571.114 763.631 535.146C770.392 530.819 774.719 529.332 776.612 530.684C777.694 531.225 777.694 532.848 776.612 535.552C774.989 539.067 774.178 541.907 774.178 544.07C774.178 554.888 778.099 563.677 785.942 570.438C793.784 577.198 802.708 580.579 812.714 580.579ZM771.744 405.745L751.462 442.253L709.275 417.508L729.557 381L771.744 405.745Z" fill="white"/>
<path d="M682.501 526.695C682.501 542.38 675.605 559.553 661.813 578.212C650.185 594.168 628.55 607.284 596.91 617.56C570.138 626.214 545.664 630.541 523.489 630.541C498.34 630.541 477.922 625.538 462.237 615.532C455.747 630.676 451.015 637.843 448.04 637.031C443.172 635.679 444.389 626.079 451.691 608.23C436.547 596.061 427.082 581.593 423.296 564.826C406.8 600.793 382.867 618.777 351.497 618.777C347.711 618.777 345.818 614.991 345.818 607.419C345.818 587.948 350.956 578.212 361.233 578.212C380.433 578.212 396.388 569.559 409.098 552.251C413.425 545.49 417.752 538.729 422.079 531.968C428.028 522.774 432.49 518.176 435.465 518.176C437.358 518.176 438.575 520.746 439.116 525.884C439.657 533.185 440.198 537.783 440.738 539.676C445.336 552.927 455.342 563.744 470.756 572.128C513.754 494.784 556.482 456.112 598.939 456.112C619.221 456.112 638.556 464.766 656.945 482.074C673.982 498.3 682.501 513.173 682.501 526.695ZM661.813 549.817C661.813 543.867 654.647 534.267 640.314 521.016C623.007 505.06 605.294 497.083 587.175 497.083C553.101 497.083 518.081 524.261 482.114 578.618C496.717 585.379 513.889 588.759 533.63 588.759C566.352 588.759 597.181 582.945 626.117 571.316C649.914 561.851 661.813 554.685 661.813 549.817Z" fill="url(#paint1_linear_174_4482)"/>
<path d="M361.233 578.202C365.019 578.202 366.912 581.988 366.912 589.56C366.912 609.031 361.774 618.767 351.498 618.767C330.675 618.767 313.097 609.167 298.764 589.966C284.432 570.495 273.75 560.759 266.719 560.759C248.059 560.759 230.752 578.337 214.797 613.494C206.684 632.694 198.571 651.76 190.458 670.69C180.723 689.35 169.229 698.68 155.979 698.68C141.646 698.68 128.665 689.215 117.037 670.284C105.679 652.165 100 632.694 100 611.871C100 595.645 101.758 579.825 105.273 564.41C108.518 550.077 111.493 543.046 114.197 543.316C116.09 543.587 116.226 547.914 114.603 556.297C112.44 570.089 111.358 582.259 111.358 592.806C111.358 614.44 115.82 632.289 124.744 646.351C133.668 660.414 143.944 667.445 155.573 667.445C169.094 667.445 185.455 644.458 204.656 598.485C215.743 572.253 228.453 551.7 242.786 536.826C254.955 524.386 265.907 518.166 275.643 518.166C281.322 518.166 286.73 521.952 291.868 529.524C297.007 536.826 302.145 544.398 307.283 552.241C321.075 570.63 339.058 579.284 361.233 578.202ZM319.858 427.301L299.576 463.809L258.2 439.471L241.163 469.894L198.977 445.15L219.259 408.641L260.634 432.98L277.671 402.557L319.858 427.301Z" fill="white"/>
<defs>
<linearGradient id="paint0_linear_174_4482" x1="128.594" y1="598.49" x2="934.427" y2="421.661" gradientUnits="userSpaceOnUse">
<stop offset="0.0576923" stop-color="white"/>
<stop offset="0.240385" stop-color="white"/>
<stop offset="0.399038" stop-color="#60A5FA"/>
<stop offset="0.677885" stop-color="#60A5FA"/>
<stop offset="0.745192" stop-color="#F0F7FF"/>
<stop offset="1" stop-color="white"/>
</linearGradient>
<linearGradient id="paint1_linear_174_4482" x1="522.055" y1="598.843" x2="367.755" y2="594.305" gradientUnits="userSpaceOnUse">
<stop stop-color="#34D399"/>
<stop offset="0.658654" stop-color="#47D7A2"/>
<stop offset="1" stop-color="white"/>
</linearGradient>
</defs>
</svg>
